<svg viewBox="0 0 78 12" xmlns="http://www.w3.org/2000/svg"><title>Group</title><path d="M.673 11.63h.265c.53 0 .73-.268.93-.806l.795-3.832h3.98c.33 0 .53-.067.662-.202.2-.2.265-.672.265-.874 0-.27-.265-.47-.73-.47H2.93l.73-3.63h5.305c.398 0 .53-.068.663-.202.2-.202.33-.673.33-.942 0-.336-.264-.47-.728-.47H3.193C2.53.202 2.133.538 2 1.21L.01 10.757c-.066.538.2.874.663.874zm12.865 0h.266c.53 0 .73-.268.862-.806l2.056-9.816c.132-.537-.133-.874-.664-.874h-.265c-.53 0-.73.27-.928.807l-2.056 9.817c0 .538.264.874.728.874zm7.096 0h.2c.53 0 .73-.268.86-.806l1.725-8.202 3.978 8.27c.266.537.53.74.93.74h.13c.598 0 .93-.337.996-.942l2.056-9.614c.132-.605-.133-.874-.597-.874h-.2c-.53 0-.728.27-.86.806l-1.66 7.866-3.845-8c-.266-.538-.464-.74-.93-.74h-.264c-.597 0-.928.337-1.06 1.01l-1.99 9.546c-.2.605.066.94.53.94zm14.855 0l1.922-3.428h4.51l.463 2.488c.133.605.465.874.863.874.53 0 .994-.404.994-.538L42.252.672C42.188.27 41.923 0 41.126 0c-.663 0-.928.202-1.127.538l-5.305 9.01c-.332.537-.398.806-.398 1.074-.066 1.143 1.194 1.076 1.194 1.01zm2.65-4.84l2.72-4.773.862 4.773h-3.58zm13.33 4.908c.53 0 .863-.134 1.128-.605l5.24-8.874c.33-.54.463-.808.463-1.077 0-1.01-1.325-.94-1.325-.94L51.802 9.48 50.41 1.076c-.067-.605-.465-.942-.862-.942-.53 0-1.062.404-1.062.606l1.924 10.22c.066.402.33.738 1.06.738zm10.28-.067h.265c.53 0 .796-.268.862-.806l2.056-9.816C65.065.47 64.8.134 64.27.134h-.266c-.53 0-.73.27-.928.807l-1.99 9.817c-.132.538.133.874.664.874zm7.228 0L70.9 8.203h4.51l.465 2.488c.132.605.464.874.862.874.53 0 .994-.404.994-.538L75.743.672C75.676.27 75.41 0 74.615 0c-.664 0-.93.202-1.128.538l-5.305 9.01c-.33.537-.398.806-.398 1.074-.066 1.143 1.194 1.076 1.194 1.01zm2.652-4.84l2.72-4.773.86 4.773h-3.58z" fill-rule="nonzero" fill="#009DD8"/></svg>
